<svg width="74" height="62" viewBox="0 0 74 62" fill="none" xmlns="http://www.w3.org/2000/svg">
<path d="M58.4532 0.861567C63.7274 2.08669 66.988 5.88227 67.5992 11.1005C67.8557 13.2902 67.8238 15.4061 67.2453 17.5093C66.1519 21.4847 63.6138 24.1341 59.7441 25.5257C59.4479 25.6322 59.1583 25.7569 58.5127 26.0134C64.7645 27.4258 69.1474 30.5615 70.7919 36.6861C70.3536 37.1381 69.9182 37.0351 69.5214 37.038C67.5425 37.0521 65.5617 36.9986 63.5852 37.0701C62.6224 37.1049 62.2236 36.7124 61.9153 35.8485C59.8979 30.1945 55.4044 26.9477 49.3555 26.8142C45.3533 26.7259 41.3476 26.793 37.3452 26.7099C36.0599 26.6832 35.6593 27.1602 35.6978 28.3996C35.7707 30.7445 35.6669 33.0951 35.7449 35.4397C35.7876 36.7233 35.312 37.1349 34.0583 37.072C32.2679 36.9822 30.466 36.9779 28.676 37.0711C27.4009 37.1375 27.0213 36.6867 27.027 35.4265C27.0695 26.0839 27.0494 16.7411 27.0472 7.39839C27.047 6.61609 27.082 5.82972 27.0171 5.05222C26.8038 2.49833 25.8114 1.58844 23.25 1.39982C22.6013 1.35206 21.4282 1.8194 21.4381 0.811449C21.4491 -0.315696 22.666 0.171751 23.3423 0.169129C32.915 0.132047 42.4878 0.138148 52.0607 0.137684C54.1795 0.137581 56.2774 0.343061 58.4532 0.861567ZM43.2948 25.5278C45.5001 25.533 47.698 25.4952 49.9008 25.2772C54.1543 24.8563 57.3384 22.2312 58.5783 18.1119C59.2997 15.7149 59.2011 13.2836 59.0507 10.8652C58.7233 5.60178 55.6425 2.32296 50.4983 1.66378C45.9217 1.07734 41.319 1.54188 36.7302 1.41273C35.9151 1.38978 35.7231 1.85402 35.7234 2.55048C35.7268 9.81492 35.731 17.0794 35.71 24.3438C35.7074 25.2473 36.0756 25.5537 36.95 25.5376C38.9723 25.5004 40.9958 25.5271 43.2948 25.5278Z" fill="white"/>
<path d="M66.3622 47.6264C68.0534 47.6267 69.6071 47.6267 71.3397 47.6267C71.0002 51.1302 69.768 54.0191 67.5012 56.4204C64.8925 59.1839 61.4964 60.4008 57.8515 61.0501C55.4927 61.4703 53.1143 61.573 50.7197 61.5656C41.6564 61.5372 32.5929 61.5482 23.5295 61.544C23.1614 61.5438 22.7917 61.5592 22.4258 61.5296C21.9823 61.4937 21.3874 61.5531 21.3815 60.9128C21.3752 60.2296 21.9937 60.3832 22.4224 60.3356C22.6503 60.3104 22.8833 60.3327 23.1114 60.3087C26.1212 59.9926 27.0209 59.0038 27.0421 55.9521C27.0583 53.6058 27.0778 51.2589 27.0378 48.9132C27.0215 47.9607 27.3789 47.5981 28.329 47.6174C30.3525 47.6585 32.3783 47.6658 34.4013 47.6148C35.4509 47.5882 35.7525 48.0538 35.7425 49.0246C35.709 52.2908 35.7601 55.5581 35.7051 58.8237C35.6864 59.9295 35.9947 60.3983 37.1803 60.3525C41.5876 60.182 46.0065 60.6092 50.4093 60.0973C56.9417 59.3378 60.9248 55.9306 62.3912 49.5368C62.7651 47.9067 63.4596 47.3892 64.984 47.6164C65.3891 47.6767 65.8107 47.6259 66.3622 47.6264Z" fill="white"/>
<path d="M58.368 41.9904C58.6623 41.866 58.9435 41.6881 59.0814 41.9151C59.4347 42.4966 58.6719 42.684 58.4823 43.1523C59.7541 43.0014 60.6212 41.9416 61.8759 41.9863C62.0551 42.9252 61.0122 42.9077 60.7879 43.6974C62.9121 43.6149 64.8633 43.0824 66.7593 42.3352C67.4889 42.0477 68.2035 41.7319 68.9793 41.6068C69.3923 41.5403 69.881 41.5116 70.0182 42.0248C70.178 42.6225 69.6642 42.7763 69.2436 42.9753C68.5122 43.3213 67.6001 42.7689 66.7286 43.5489C68.0439 43.8781 69.1169 43.4589 70.1991 43.3339C71.2558 43.2118 72.2336 42.543 73.3445 42.7698C73.4 43.2451 73.134 43.3427 72.8664 43.4296C71.1145 43.9986 69.3485 44.5019 67.485 44.5111C67.1647 44.5127 66.7358 44.5969 66.5414 44.4292C65.304 43.3619 64.0228 44.0724 62.767 44.2802C61.5875 44.4754 60.426 44.7876 59.287 44.1203C58.9256 43.9085 58.5638 44.1423 58.2262 44.2527C57.5546 44.4723 56.9896 44.5208 56.2691 44.1669C55.2141 43.6488 54.1391 44.3549 53.0794 44.5612C52.5111 44.6719 51.9785 45.0719 51.3871 44.6764C51.0741 44.1148 51.6749 43.9949 51.8785 43.6269C51.7357 43.6058 51.6137 43.5558 51.5051 43.5765C49.8403 43.8937 48.2408 44.5513 46.5071 44.5127C45.82 44.4974 45.137 44.575 44.5615 44.0328C44.0532 43.5538 43.5151 43.9811 43.0095 44.1145C41.6905 44.4626 40.3752 45.0556 39.4246 43.3842C39.1391 42.8824 38.5452 42.8277 37.9646 43.1938C37.2661 43.6342 36.532 44.0292 35.7796 44.3692C35.2949 44.5883 34.7473 44.8496 34.238 44.3569C34.173 44.2939 34.0516 44.1863 34.0213 44.205C32.2916 45.2682 30.968 43.452 29.3647 43.5448C28.7717 43.5792 28.3348 43.9045 27.8141 44.0589C26.8261 44.352 25.9077 44.9218 24.8321 44.0993C24.3106 43.7005 23.6157 44.3132 22.9903 44.3697C22.0264 44.4567 20.8125 45.2058 20.498 43.6036C17.7486 43.805 15.4568 44.8443 13.2037 46.2973C10.4874 48.0491 7.46275 49.236 4.07085 48.6513C3.57528 48.5658 3.07658 48.4477 2.60732 48.2705C1.41276 47.8195 0.506179 47.0541 0.418999 45.6951C0.333493 44.3623 0.976293 43.1679 2.18903 42.8563C4.51633 42.2581 5.68207 40.4406 7.08176 38.835C10.2829 35.163 13.4965 31.5041 17.3292 27.9806C13.3911 28.7336 9.78185 29.4691 6.48736 31.2825C5.56876 31.7881 5.00233 32.4929 5.12446 33.717C4.12326 33.3203 4.27837 32.6724 4.49471 32.0922C4.74472 31.4216 5.29865 30.9846 5.91704 30.6434C9.8539 28.4712 14.2161 27.7453 18.5533 26.9386C18.7239 26.9069 18.9173 26.9658 19.0932 27.0099C19.1672 27.0285 19.2232 27.1188 19.4646 27.3355C17.9939 28.695 16.3736 29.8673 15.1319 31.4254C16.6858 30.2105 18.3463 29.1693 20.0856 28.272C21.1285 27.734 22.2872 27.041 23.379 28.1451C24.1094 28.8837 23.6778 30.578 22.4771 31.7078C21.7451 32.3964 20.8965 32.9609 20.0008 33.6586C20.8425 34.2317 21.9088 34.6323 21.9953 35.8435C22.0961 37.2538 21.457 38.433 20.7767 39.5871C20.0504 40.8193 19.1047 41.8839 18.0608 42.9165C19.9918 43.0498 20.9319 42.5764 21.602 41.1069C22.3427 41.3399 23.0958 41.5767 23.9218 41.8365C23.7963 42.8599 22.5886 42.7728 22.2313 43.64C23.8267 43.4333 25.2922 43.0061 26.6734 42.33C27.78 41.7884 28.7113 41.5086 29.7708 42.5801C30.5746 43.393 31.5746 42.8318 32.4167 42.3087C32.7826 42.0814 32.9967 41.5606 33.6747 41.7508C33.7523 42.5193 32.9908 42.8579 32.7294 43.5092C33.7423 43.5648 34.3084 42.5037 35.2005 42.5084C35.664 42.7914 35.3163 43.2139 35.4639 43.6449C36.7422 42.9409 37.9351 42.2839 39.2206 41.576C39.858 43.0984 40.5542 42.6226 41.427 41.8641C43.0555 40.4491 44.6615 38.987 46.5839 37.9557C47.018 37.7229 47.5607 37.3162 47.962 37.7949C48.446 38.3721 47.8285 38.8071 47.4762 39.1814C46.0267 40.7218 44.0787 41.5126 42.2995 42.557C41.8831 42.8014 41.3178 42.8812 41.1718 43.7329C42.7192 43.4454 44.1177 42.9995 45.4586 42.3883C46.1769 42.0609 46.9089 41.806 47.6717 41.6354C48.1369 41.5314 48.7031 41.5065 48.8372 42.0562C48.998 42.715 48.3816 42.8456 47.9051 43.0162C47.1904 43.2721 46.3491 42.818 45.676 43.3376C45.7726 43.9082 46.1772 43.7796 46.4447 43.7441C48.5386 43.4657 50.6316 43.2096 52.498 42.0598C53.976 41.1494 54.7241 41.1618 55.5898 41.9925C54.8235 42.5249 53.6863 41.9321 53.1047 42.817C53.9865 43.7184 56.0193 43.413 58.368 41.9904ZM20.1719 38.9444C20.3605 38.5767 20.5774 38.2205 20.7316 37.8389C21.055 37.0389 21.538 36.2212 20.8939 35.373C20.2324 34.502 19.331 34.6818 18.3852 34.7663C17.5455 34.8414 16.8061 35.538 15.8882 35.1952C15.9257 34.4609 16.5374 34.4434 16.9548 34.2442C18.4516 33.5299 19.883 32.7092 21.2222 31.7307C21.8606 31.2642 22.409 30.7177 22.7237 29.971C22.8894 29.5778 23.0252 29.1647 22.7508 28.7916C22.4256 28.3494 21.9241 28.4053 21.4873 28.5486C20.4774 28.8799 19.5525 29.4054 18.6881 30.0127C14.649 32.8508 11.0155 36.1467 7.76285 39.8562C7.30532 40.378 6.66955 40.8053 6.43534 41.6125C7.89024 41.9999 9.2374 42.4793 10.6259 42.7073C16.5624 43.682 16.3002 44.0699 20.1719 38.9444ZM9.99845 47.0156C11.6552 46.3604 13.1959 45.503 14.7259 44.4175C13.8122 43.7542 12.8469 43.9865 11.9756 43.8426C10.076 43.5287 8.26285 42.8137 6.31843 42.7039C5.54817 42.6604 4.97264 42.8241 4.56365 43.4908C3.99145 44.4235 3.38881 44.6785 2.80154 43.4144C1.92891 44.0238 1.18421 44.5813 1.29367 45.6574C1.40063 46.7089 2.16147 47.2196 3.08005 47.5364C5.38051 48.3296 7.60158 47.9074 9.99845 47.0156Z" fill="white"/>
</svg>
