<svg width="349" height="137" viewBox="0 0 349 137" fill="none" xmlns="http://www.w3.org/2000/svg">
<path d="M104.384 91V65.8H114.752C116.984 65.8 118.892 66.16 120.476 66.88C122.084 67.6 123.32 68.632 124.184 69.976C125.048 71.32 125.48 72.916 125.48 74.764C125.48 76.612 125.048 78.208 124.184 79.552C123.32 80.872 122.084 81.892 120.476 82.612C118.892 83.308 116.984 83.656 114.752 83.656H106.976L109.064 81.532V91H104.384ZM120.872 91L114.5 81.856H119.504L125.912 91H120.872ZM109.064 82.036L106.976 79.804H114.536C116.6 79.804 118.148 79.36 119.18 78.472C120.236 77.584 120.764 76.348 120.764 74.764C120.764 73.156 120.236 71.92 119.18 71.056C118.148 70.192 116.6 69.76 114.536 69.76H106.976L109.064 67.456V82.036ZM142.524 91.36C140.556 91.36 138.744 91.036 137.088 90.388C135.432 89.74 133.992 88.84 132.768 87.688C131.544 86.512 130.596 85.144 129.924 83.584C129.252 82 128.916 80.272 128.916 78.4C128.916 76.528 129.252 74.812 129.924 73.252C130.596 71.668 131.544 70.3 132.768 69.148C133.992 67.972 135.432 67.06 137.088 66.412C138.744 65.764 140.544 65.44 142.488 65.44C144.456 65.44 146.256 65.764 147.888 66.412C149.544 67.06 150.984 67.972 152.208 69.148C153.432 70.3 154.38 71.668 155.052 73.252C155.724 74.812 156.06 76.528 156.06 78.4C156.06 80.272 155.724 82 155.052 83.584C154.38 85.168 153.432 86.536 152.208 87.688C150.984 88.84 149.544 89.74 147.888 90.388C146.256 91.036 144.468 91.36 142.524 91.36ZM142.488 87.256C143.76 87.256 144.936 87.04 146.016 86.608C147.096 86.176 148.032 85.564 148.824 84.772C149.616 83.956 150.228 83.02 150.66 81.964C151.116 80.884 151.344 79.696 151.344 78.4C151.344 77.104 151.116 75.928 150.66 74.872C150.228 73.792 149.616 72.856 148.824 72.064C148.032 71.248 147.096 70.624 146.016 70.192C144.936 69.76 143.76 69.544 142.488 69.544C141.216 69.544 140.04 69.76 138.96 70.192C137.904 70.624 136.968 71.248 136.152 72.064C135.36 72.856 134.736 73.792 134.28 74.872C133.848 75.928 133.632 77.104 133.632 78.4C133.632 79.672 133.848 80.848 134.28 81.928C134.736 83.008 135.36 83.956 136.152 84.772C136.944 85.564 137.88 86.176 138.96 86.608C140.04 87.04 141.216 87.256 142.488 87.256ZM166.187 91L157.835 65.8H162.695L170.147 88.588H167.735L175.475 65.8H179.795L187.319 88.588H184.979L192.611 65.8H197.075L188.723 91H183.755L176.879 70.444H178.175L171.191 91H166.187ZM200.888 91V65.8H205.568V87.04H218.744V91H200.888ZM226.759 76.276H239.287V80.128H226.759V76.276ZM227.119 87.076H241.339V91H222.439V65.8H240.835V69.724H227.119V87.076ZM254.368 91.36C252.4 91.36 250.516 91.084 248.716 90.532C246.916 89.956 245.488 89.224 244.432 88.336L246.052 84.7C247.06 85.492 248.308 86.152 249.796 86.68C251.284 87.208 252.808 87.472 254.368 87.472C255.688 87.472 256.756 87.328 257.572 87.04C258.388 86.752 258.988 86.368 259.372 85.888C259.756 85.384 259.948 84.82 259.948 84.196C259.948 83.428 259.672 82.816 259.12 82.36C258.568 81.88 257.848 81.508 256.96 81.244C256.096 80.956 255.124 80.692 254.044 80.452C252.988 80.212 251.92 79.936 250.84 79.624C249.784 79.288 248.812 78.868 247.924 78.364C247.06 77.836 246.352 77.14 245.8 76.276C245.248 75.412 244.972 74.308 244.972 72.964C244.972 71.596 245.332 70.348 246.052 69.22C246.796 68.068 247.912 67.156 249.4 66.484C250.912 65.788 252.82 65.44 255.124 65.44C256.636 65.44 258.136 65.632 259.624 66.016C261.112 66.4 262.408 66.952 263.512 67.672L262.036 71.308C260.908 70.636 259.744 70.144 258.544 69.832C257.344 69.496 256.192 69.328 255.088 69.328C253.792 69.328 252.736 69.484 251.92 69.796C251.128 70.108 250.54 70.516 250.156 71.02C249.796 71.524 249.616 72.1 249.616 72.748C249.616 73.516 249.88 74.14 250.408 74.62C250.96 75.076 251.668 75.436 252.532 75.7C253.42 75.964 254.404 76.228 255.484 76.492C256.564 76.732 257.632 77.008 258.688 77.32C259.768 77.632 260.74 78.04 261.604 78.544C262.492 79.048 263.2 79.732 263.728 80.596C264.28 81.46 264.556 82.552 264.556 83.872C264.556 85.216 264.184 86.464 263.44 87.616C262.72 88.744 261.604 89.656 260.092 90.352C258.58 91.024 256.672 91.36 254.368 91.36ZM281.005 91.36C279.037 91.36 277.225 91.036 275.569 90.388C273.913 89.74 272.473 88.84 271.249 87.688C270.025 86.512 269.077 85.144 268.405 83.584C267.733 82 267.397 80.272 267.397 78.4C267.397 76.528 267.733 74.812 268.405 73.252C269.077 71.668 270.025 70.3 271.249 69.148C272.473 67.972 273.913 67.06 275.569 66.412C277.225 65.764 279.025 65.44 280.969 65.44C282.937 65.44 284.737 65.764 286.369 66.412C288.025 67.06 289.465 67.96 290.689 69.112C291.913 70.264 292.861 71.632 293.533 73.216C294.205 74.8 294.541 76.528 294.541 78.4C294.541 80.272 294.205 82 293.533 83.584C292.861 85.168 291.913 86.536 290.689 87.688C289.465 88.84 288.025 89.74 286.369 90.388C284.737 91.036 282.949 91.36 281.005 91.36ZM289.213 96.508C288.325 96.508 287.461 96.4 286.621 96.184C285.805 95.992 284.989 95.656 284.173 95.176C283.381 94.72 282.553 94.108 281.689 93.34C280.825 92.596 279.877 91.672 278.845 90.568L283.812 89.272C284.484 90.16 285.121 90.868 285.721 91.396C286.345 91.948 286.945 92.344 287.521 92.584C288.097 92.824 288.697 92.944 289.321 92.944C290.977 92.944 292.417 92.272 293.641 90.928L295.801 93.52C294.121 95.512 291.925 96.508 289.213 96.508ZM280.969 87.256C282.241 87.256 283.417 87.04 284.497 86.608C285.577 86.176 286.513 85.564 287.305 84.772C288.097 83.956 288.709 83.008 289.141 81.928C289.597 80.848 289.825 79.672 289.825 78.4C289.825 77.104 289.597 75.928 289.141 74.872C288.709 73.792 288.097 72.856 287.305 72.064C286.513 71.248 285.577 70.624 284.497 70.192C283.417 69.76 282.241 69.544 280.969 69.544C279.697 69.544 278.521 69.76 277.441 70.192C276.361 70.624 275.425 71.248 274.633 72.064C273.841 72.856 273.217 73.792 272.761 74.872C272.329 75.928 272.113 77.104 272.113 78.4C272.113 79.672 272.329 80.848 272.761 81.928C273.217 83.008 273.841 83.956 274.633 84.772C275.425 85.564 276.361 86.176 277.441 86.608C278.521 87.04 279.697 87.256 280.969 87.256ZM310.337 91.36C306.881 91.36 304.169 90.388 302.201 88.444C300.257 86.5 299.285 83.692 299.285 80.02V65.8H303.965V79.84C303.965 82.432 304.517 84.316 305.621 85.492C306.749 86.668 308.333 87.256 310.373 87.256C312.413 87.256 313.985 86.668 315.089 85.492C316.193 84.316 316.745 82.432 316.745 79.84V65.8H321.353V80.02C321.353 83.692 320.369 86.5 318.401 88.444C316.457 90.388 313.769 91.36 310.337 91.36ZM332.227 76.276H344.755V80.128H332.227V76.276ZM332.587 87.076H346.807V91H327.907V65.8H346.303V69.724H332.587V87.076Z" fill="white"/>
<path d="M85.4532 31.8616C90.7274 33.0867 93.988 36.8823 94.5992 42.1005C94.8557 44.2903 94.8238 46.4061 94.2453 48.5094C93.1519 52.4848 90.6138 55.1342 86.7441 56.5257C86.4479 56.6322 86.1583 56.757 85.5127 57.0134C91.7645 58.4258 96.1474 61.5616 97.7919 67.6861C97.3536 68.1381 96.9182 68.0352 96.5214 68.038C94.5425 68.0521 92.5617 67.9986 90.5852 68.0701C89.6224 68.105 89.2236 67.7125 88.9153 66.8485C86.8979 61.1946 82.4044 57.9477 76.3555 57.8143C72.3533 57.726 68.3476 57.7931 64.3452 57.7099C63.0599 57.6833 62.6593 58.1602 62.6978 59.3996C62.7707 61.7445 62.6669 64.0951 62.7449 66.4397C62.7876 67.7234 62.312 68.1349 61.0583 68.0721C59.2679 67.9823 57.466 67.9779 55.676 68.0711C54.4009 68.1375 54.0213 67.6868 54.027 66.4265C54.0695 57.084 54.0494 47.7412 54.0472 38.3984C54.047 37.6161 54.082 36.8298 54.0171 36.0523C53.8038 33.4984 52.8114 32.5885 50.25 32.3999C49.6013 32.3521 48.4282 32.8194 48.4381 31.8115C48.4491 30.6843 49.666 31.1718 50.3423 31.1692C59.915 31.1321 69.4878 31.1382 79.0607 31.1377C81.1795 31.1376 83.2774 31.3431 85.4532 31.8616ZM70.2948 56.5278C72.5001 56.533 74.698 56.4952 76.9008 56.2772C81.1543 55.8563 84.3384 53.2312 85.5783 49.1119C86.2997 46.7149 86.2011 44.2837 86.0507 41.8652C85.7233 36.6018 82.6425 33.323 77.4983 32.6638C72.9217 32.0774 68.319 32.5419 63.7302 32.4128C62.9151 32.3898 62.7231 32.8541 62.7234 33.5505C62.7268 40.815 62.731 48.0794 62.71 55.3438C62.7074 56.2474 63.0756 56.5537 63.95 56.5376C65.9723 56.5005 67.9958 56.5271 70.2948 56.5278Z" fill="white"/>
<path d="M93.3622 78.6264C95.0534 78.6267 96.6071 78.6267 98.3397 78.6267C98.0002 82.1302 96.768 85.0191 94.5012 87.4204C91.8925 90.1839 88.4964 91.4008 84.8515 92.0501C82.4927 92.4703 80.1143 92.5731 77.7197 92.5656C68.6564 92.5373 59.5929 92.5483 50.5295 92.544C50.1614 92.5438 49.7917 92.5592 49.4258 92.5296C48.9823 92.4937 48.3874 92.5531 48.3815 91.9128C48.3752 91.2297 48.9937 91.3832 49.4224 91.3357C49.6503 91.3104 49.8833 91.3327 50.1114 91.3087C53.1212 90.9926 54.0209 90.0039 54.0421 86.9521C54.0583 84.6058 54.0778 82.2589 54.0378 79.9133C54.0215 78.9607 54.3789 78.5981 55.329 78.6174C57.3525 78.6585 59.3783 78.6659 61.4013 78.6148C62.4509 78.5883 62.7525 79.0538 62.7425 80.0247C62.709 83.2908 62.7601 86.5581 62.7051 89.8237C62.6864 90.9295 62.9947 91.3984 64.1803 91.3525C68.5876 91.182 73.0065 91.6092 77.4093 91.0973C83.9417 90.3379 87.9248 86.9306 89.3912 80.5368C89.7651 78.9067 90.4596 78.3893 91.984 78.6164C92.3891 78.6768 92.8107 78.6259 93.3622 78.6264Z" fill="white"/>
<path d="M85.368 72.9903C85.6623 72.8659 85.9435 72.688 86.0814 72.9151C86.4347 73.4966 85.6719 73.684 85.4823 74.1523C86.7541 74.0013 87.6212 72.9416 88.8759 72.9862C89.0551 73.9252 88.0122 73.9076 87.7879 74.6973C89.9121 74.6148 91.8633 74.0824 93.7593 73.3351C94.4889 73.0476 95.2035 72.7318 95.9793 72.6068C96.3923 72.5402 96.881 72.5115 97.0182 73.0247C97.178 73.6224 96.6642 73.7762 96.2436 73.9752C95.5122 74.3213 94.6001 73.7688 93.7286 74.5488C95.0439 74.8781 96.1169 74.4589 97.1991 74.3338C98.2558 74.2118 99.2336 73.5429 100.345 73.7697C100.4 74.245 100.134 74.3426 99.8664 74.4296C98.1145 74.9985 96.3485 75.5018 94.485 75.5111C94.1647 75.5126 93.7358 75.5968 93.5414 75.4291C92.304 74.3618 91.0229 75.0724 89.767 75.2802C88.5875 75.4753 87.426 75.7875 86.287 75.1202C85.9256 74.9085 85.5638 75.1422 85.2262 75.2526C84.5546 75.4723 83.9896 75.5208 83.2691 75.1669C82.2141 74.6487 81.1391 75.3548 80.0794 75.5612C79.5111 75.6718 78.9785 76.0719 78.3871 75.6764C78.0741 75.1148 78.6749 74.9949 78.8785 74.6268C78.7357 74.6057 78.6137 74.5557 78.5051 74.5764C76.8403 74.8937 75.2408 75.5513 73.5071 75.5127C72.82 75.4974 72.137 75.5749 71.5615 75.0327C71.0532 74.5538 70.5151 74.981 70.0095 75.1145C68.6905 75.4625 67.3752 76.0555 66.4246 74.3841C66.1391 73.8823 65.5452 73.8276 64.9646 74.1937C64.2661 74.6341 63.532 75.0292 62.7796 75.3691C62.2949 75.5882 61.7472 75.8496 61.238 75.3568C61.173 75.2939 61.0516 75.1863 61.0213 75.2049C59.2916 76.2682 57.968 74.4519 56.3647 74.5447C55.7717 74.5791 55.3348 74.9044 54.8141 75.0589C53.8261 75.3519 52.9077 75.9217 51.8321 75.0992C51.3106 74.7004 50.6157 75.3132 49.9903 75.3696C49.0264 75.4566 47.8125 76.2058 47.498 74.6036C44.7486 74.8049 42.4568 75.8442 40.2037 77.2972C37.4874 79.049 34.4628 80.2359 31.0708 79.6512C30.5753 79.5658 30.0766 79.4476 29.6073 79.2705C28.4128 78.8195 27.5062 78.054 27.419 76.6951C27.3335 75.3622 27.9763 74.1679 29.189 73.8562C31.5163 73.2581 32.6821 71.4406 34.0818 69.835C37.2829 66.1629 40.4965 62.504 44.3292 58.9806C40.3911 59.7336 36.7819 60.4691 33.4874 62.2824C32.5688 62.788 32.0023 63.4928 32.1245 64.7169C31.1233 64.3203 31.2784 63.6724 31.4947 63.0921C31.7447 62.4216 32.2986 61.9846 32.917 61.6434C36.8539 59.4711 41.2161 58.7452 45.5533 57.9386C45.7239 57.9068 45.9173 57.9657 46.0932 58.0099C46.1672 58.0285 46.2232 58.1187 46.4646 58.3355C44.9939 59.6949 43.3736 60.8673 42.1319 62.4254C43.6858 61.2105 45.3463 60.1693 47.0856 59.272C48.1285 58.7339 49.2872 58.0409 50.379 59.145C51.1094 59.8836 50.6778 61.578 49.4771 62.7077C48.7451 63.3963 47.8965 63.9608 47.0008 64.6585C47.8425 65.2317 48.9088 65.6322 48.9953 66.8435C49.0961 68.2538 48.457 69.4329 47.7767 70.5871C47.0504 71.8192 46.1047 72.8838 45.0608 73.9165C46.9918 74.0497 47.9319 73.5764 48.602 72.1068C49.3427 72.3398 50.0958 72.5766 50.9218 72.8364C50.7963 73.8599 49.5886 73.7728 49.2313 74.64C50.8267 74.4332 52.2922 74.006 53.6734 73.33C54.78 72.7883 55.7113 72.5085 56.7708 73.5801C57.5746 74.3929 58.5746 73.8318 59.4167 73.3086C59.7826 73.0813 59.9967 72.5605 60.6747 72.7507C60.7523 73.5193 59.9908 73.8578 59.7294 74.5091C60.7423 74.5647 61.3084 73.5036 62.2005 73.5083C62.664 73.7913 62.3163 74.2139 62.4639 74.6449C63.7422 73.9409 64.9352 73.2839 66.2206 72.576C66.858 74.0984 67.5542 73.6225 68.427 72.8641C70.0555 71.449 71.6615 69.9869 73.5839 68.9557C74.018 68.7228 74.5607 68.3162 74.962 68.7948C75.446 69.372 74.8285 69.8071 74.4762 70.1814C73.0267 71.7217 71.0787 72.5125 69.2995 73.5569C68.8831 73.8014 68.3178 73.8811 68.1718 74.7328C69.7192 74.4453 71.1177 73.9994 72.4586 73.3883C73.1769 73.0609 73.9089 72.806 74.6717 72.6354C75.1369 72.5314 75.7031 72.5064 75.8372 73.0561C75.998 73.715 75.3816 73.8456 74.9051 74.0162C74.1904 74.272 73.3491 73.8179 72.676 74.3375C72.7726 74.9081 73.1772 74.7796 73.4447 74.744C75.5386 74.4657 77.6316 74.2095 79.498 73.0598C80.976 72.1493 81.7241 72.1618 82.5898 72.9925C81.8235 73.5248 80.6863 72.9321 80.1047 73.817C80.9865 74.7183 83.0193 74.413 85.368 72.9903ZM47.1719 69.9443C47.3605 69.5766 47.5774 69.2204 47.7316 68.8389C48.055 68.0389 48.538 67.2211 47.8939 66.3729C47.2324 65.5019 46.331 65.6818 45.3852 65.7663C44.5455 65.8413 43.806 66.5379 42.8882 66.1951C42.9257 65.4609 43.5374 65.4434 43.9548 65.2441C45.4516 64.5298 46.883 63.7092 48.2222 62.7307C48.8606 62.2642 49.409 61.7177 49.7237 60.971C49.8894 60.5777 50.0252 60.1646 49.7508 59.7915C49.4256 59.3494 48.9241 59.4053 48.4873 59.5485C47.4774 59.8798 46.5525 60.4053 45.6881 61.0127C41.649 63.8507 38.0155 67.1467 34.7629 70.8562C34.3053 71.378 33.6695 71.8053 33.4353 72.6125C34.8902 72.9998 36.2374 73.4793 37.6259 73.7073C43.5624 74.682 43.3002 75.0698 47.1719 69.9443ZM36.9984 78.0155C38.6552 77.3604 40.1959 76.5029 41.7259 75.4174C40.8122 74.7542 39.8469 74.9865 38.9756 74.8425C37.076 74.5286 35.2628 73.8136 33.3184 73.7038C32.5482 73.6603 31.9726 73.824 31.5636 74.4907C30.9915 75.4234 30.3888 75.6784 29.8015 74.4144C28.9289 75.0237 28.1842 75.5812 28.2937 76.6573C28.4006 77.7088 29.1615 78.2195 30.0801 78.5363C32.3805 79.3296 34.6016 78.9073 36.9984 78.0155Z" fill="white"/>
</svg>
