<svg width="42" height="42" viewBox="0 0 42 42" fill="none" xmlns="http://www.w3.org/2000/svg">
<path d="M3.67962 7.20927L8.18178 2.70711C8.57231 2.31658 9.20547 2.31658 9.59599 2.70711L17.0707 10.1818C17.4612 10.5723 17.4612 11.2055 17.0707 11.596L13.843 14.8237C13.5386 15.128 13.4632 15.593 13.6557 15.978L14.3491 17.3649C16.5747 21.8161 20.1839 25.4253 24.6351 27.6509L26.022 28.3443C26.407 28.5368 26.872 28.4614 27.1763 28.157L30.404 24.9293C30.7945 24.5388 31.4277 24.5388 31.8182 24.9293L39.2929 32.404C39.6834 32.7945 39.6834 33.4277 39.2929 33.8182L34.7907 38.3204C32.6794 40.4317 29.3368 40.6693 26.9481 38.8777L15.9619 30.6381C14.2184 29.3304 12.6696 27.7816 11.3619 26.0381L3.12226 15.0519C1.33072 12.6632 1.56827 9.32062 3.67962 7.20927Z" stroke="white" stroke-width="3"/>
</svg>
